<svg xmlns="http://www.w3.org/2000/svg" width="433.531" height="237.437" viewBox="0 0 433.531 237.437">
  <g id="Group_59" data-name="Group 59" transform="translate(-155.999 -114.228)">
    <path id="Path_372" data-name="Path 372" d="M117.114-84.334v11.622H98.489v-6.109a6.065,6.065,0,0,0-1.788-4.47,5.887,5.887,0,0,0-4.321-1.788H36.654a6.137,6.137,0,0,0-4.4,1.788,5.94,5.94,0,0,0-1.862,4.47v54.087a5.771,5.771,0,0,0,1.862,4.321,6.137,6.137,0,0,0,4.4,1.788H92.38A5.887,5.887,0,0,0,96.7-20.413a5.887,5.887,0,0,0,1.788-4.321v-6.109h18.625V-19.37a18.671,18.671,0,0,1-5.662,13.708A18.671,18.671,0,0,1,97.744,0H31.29A18.55,18.55,0,0,1,17.582-5.736,18.745,18.745,0,0,1,11.92-19.37V-84.334a18.745,18.745,0,0,1,5.662-13.634A18.55,18.55,0,0,1,31.29-103.7H97.744a18.55,18.55,0,0,1,13.708,5.736A18.745,18.745,0,0,1,117.114-84.334Z" transform="translate(204.142 349.164)" fill="#fff" stroke="#fff" stroke-width="3"/>
    <path id="Path_373" data-name="Path 373" d="M113.985,0H86.718L32.035-81.95V0H11.92V-103.7H40.677L93.87-23.989V-103.7h20.115Z" transform="translate(339.543 349.164)" fill="#fff" stroke="#fff" stroke-width="3"/>
    <path id="Path_374" data-name="Path 374" d="M116.25-65.55A14.484,14.484,0,0,1,111.9-54.9l-3,2.7,3,2.85a14.308,14.308,0,0,1,4.35,10.5V-19.5a18.674,18.674,0,0,1-5.775,13.8A19.045,19.045,0,0,1,96.6,0H12V-104.4H96.6a18.92,18.92,0,0,1,13.875,5.775A18.748,18.748,0,0,1,116.25-84.9ZM97.35-23.4V-38.1a5.926,5.926,0,0,0-1.8-4.35,5.926,5.926,0,0,0-4.35-1.8H32.4V-17.1H91.2a5.81,5.81,0,0,0,4.35-1.875A6.178,6.178,0,0,0,97.35-23.4Zm0-42.9V-81a5.926,5.926,0,0,0-1.8-4.35,5.926,5.926,0,0,0-4.35-1.8H32.4V-60H91.2a5.81,5.81,0,0,0,4.35-1.875A6.178,6.178,0,0,0,97.35-66.3Z" transform="translate(471.78 350.164)" fill="#fff" stroke="#fff" stroke-width="3"/>
    <path id="Path_358" data-name="Path 358" d="M156,139.208c97.191,4.836,188.713,54.132,271.553,47.424v3.225c-94.019,10.712-187.675-34.736-252.883-27.143Z" transform="translate(0 10.695)" fill="#fdc010" fill-rule="evenodd"/>
    <path id="Path_359" data-name="Path 359" d="M174.424,161.715c73.01,1.2,130.678,29.225,191.158,32.034-54.759,2.442-133.436-20.231-178.312-15.859Z" transform="translate(7.888 20.331)" fill="#f7991c" fill-rule="evenodd"/>
    <path id="Path_360" data-name="Path 360" d="M189.366,180.788c26.676-.831,90.586,11.8,131.3,15.392-46.437.834-81.382-8.683-122.149-3.9Z" transform="translate(14.285 28.479)" fill="#fdc010" fill-rule="evenodd"/>
    <path id="Path_361" data-name="Path 361" d="M369.078,146.035l.187,6.452c9.721.147,27.62-.838,36.4,1.437a27.021,27.021,0,0,1,17.357,13.616l-24.775-1.964,3.179,13.409c1.32,5.56,2.408,5.263,7.8,5.621,18.907,1.262,37.884,2.341,56.758,3.683,8.664.616,13.657,3.485,19,11.635l6.048,9.219c-3.795-13.566-4.113-20.384-19.78-24.211-10.48-2.562-21.92-4.164-33.512-5.614-5.25-11.436-16.638-26.89-29.587-29.731-12.353-2.711-26.737-2.728-39.081-3.552" transform="translate(91.225 13.618)" fill="#ec4924" fill-rule="evenodd"/>
    <path id="Path_362" data-name="Path 362" d="M410.579,196.894h7.76c11.636-11.929,26.226-10.7,33.19,4.956H459.2c-9.01-23.868-37.825-27.173-48.616-4.956" transform="translate(108.993 28.994)" fill="#ec4924" fill-rule="evenodd"/>
    <path id="Path_363" data-name="Path 363" d="M473.577,194.115l-1.112,4.207L279.809,191.5Z" transform="translate(53.007 33.081)" fill="#ec4924" fill-rule="evenodd"/>
    <path id="Path_364" data-name="Path 364" d="M354.933,137.289l12.716.935c4.7,3.992,4.924,8.019,4.581,13.607l-3.647,59.316H359.42l3.78-58.383c.4-6.148-3.755-11.672-8.267-15.475" transform="translate(85.169 9.873)" fill="#ec4924" fill-rule="evenodd"/>
    <path id="Path_365" data-name="Path 365" d="M298.016,114.228v20.049l29.441,9.394V123.463Z" transform="translate(60.802)" fill="#ec4924" fill-rule="evenodd"/>
    <path id="Path_366" data-name="Path 366" d="M298.016,130.421v19.971l29.777,8.994v-19.44Z" transform="translate(60.801 6.933)" fill="#ec4924" fill-rule="evenodd"/>
    <path id="Path_367" data-name="Path 367" d="M298.07,146.5v23.845l29.6,5.2V155.5Z" transform="translate(60.825 13.819)" fill="#ec4924" fill-rule="evenodd"/>
    <path id="Path_368" data-name="Path 368" d="M321.78,137.55v19.439l29.521,6.575V144.686Z" transform="translate(70.976 9.985)" fill="#ec4924" fill-rule="evenodd"/>
    <path id="Path_369" data-name="Path 369" d="M351.324,130.934v17.895l-29.6-7.239V121.383Z" transform="translate(70.952 3.063)" fill="#ec4924" fill-rule="evenodd"/>
    <path id="Path_370" data-name="Path 370" d="M254.9,123.151l28.574.158,29.283,9.156v19.969l-29.52-9.235V126.386H254.9Z" transform="translate(42.344 3.82)" fill="#ec4924" fill-rule="evenodd"/>
    <path id="Path_371" data-name="Path 371" d="M255.125,139.012h28.021l29.6,9.551v25.293l-29.363-5.607V142.407H255.125Z" transform="translate(42.439 10.611)" fill="#ec4924" fill-rule="evenodd"/>
  </g>
</svg>
