<svg xmlns="http://www.w3.org/2000/svg" width="494.836" height="638.601"><clipPath id="a"><path d="M175.536 0C-.809 0 242.6 208.923 86.943 319.3S-.809 638.6 175.536 638.6s319.3-142.956 319.3-319.3S351.881 0 175.536 0z"/></clipPath><linearGradient id="b" x1=".5" x2=".5" y1="1" gradientUnits="objectBoundingBox"><stop offset="0" stop-color="#002c60"/><stop offset="1" stop-color="#4679c0"/></linearGradient><path fill="#002c60" d="M175.536 0C-.809 0 242.6 208.923 86.943 319.3S-.809 638.6 175.536 638.6s319.3-142.956 319.3-319.3S351.881 0 175.536 0z"/><g clip-path="url(#a)"><path fill="url(#b)" d="M319.3 638.6c176.345 0-67.066-208.922 88.593-319.3S495.645 0 319.3 0 0 142.956 0 319.3s142.956 319.3 319.3 319.3z" opacity=".3"/></g></svg>